<?xml version="1.0" encoding="UTF-8" standalone="no"?>
<!-- Created with Inkscape (http://www.inkscape.org/) -->

<svg
   width="48"
   height="48"
   viewBox="0 0 12.7 12.7"
   version="1.1"
   id="svg5"
   inkscape:version="1.1.2 (0a00cf5339, 2022-02-04)"
   sodipodi:docname="discord.svg"
   xmlns:inkscape="http://www.inkscape.org/namespaces/inkscape"
   xmlns:sodipodi="http://sodipodi.sourceforge.net/DTD/sodipodi-0.dtd"
   xmlns:xlink="http://www.w3.org/1999/xlink"
   xmlns="http://www.w3.org/2000/svg"
   xmlns:svg="http://www.w3.org/2000/svg">
  <sodipodi:namedview
     id="namedview7"
     pagecolor="#ffffff"
     bordercolor="#666666"
     borderopacity="1.0"
     inkscape:pageshadow="2"
     inkscape:pageopacity="1"
     inkscape:pagecheckerboard="0"
     inkscape:document-units="mm"
     showgrid="false"
     units="px"
     inkscape:snap-page="true"
     inkscape:snap-others="true"
     inkscape:object-nodes="true"
     inkscape:zoom="7.6193466"
     inkscape:cx="14.765046"
     inkscape:cy="27.233306"
     inkscape:window-width="1920"
     inkscape:window-height="953"
     inkscape:window-x="0"
     inkscape:window-y="0"
     inkscape:window-maximized="1"
     inkscape:current-layer="layer1"
     showguides="true"
     inkscape:snap-bbox="true"
     inkscape:snap-bbox-midpoints="true"
     inkscape:snap-bbox-edge-midpoints="true"
     inkscape:bbox-nodes="true"
     inkscape:snap-midpoints="false"
     inkscape:snap-smooth-nodes="false"
     inkscape:snap-nodes="true"
     inkscape:object-paths="false"
     inkscape:snap-global="true"
     inkscape:snap-grids="true"
     inkscape:bbox-paths="true">
    <inkscape:grid
       type="xygrid"
       id="grid930" />
  </sodipodi:namedview>
  <defs
     id="defs2">
    <linearGradient
       inkscape:collect="always"
       id="linearGradient5949">
      <stop
         style="stop-color:#749ef2;stop-opacity:1"
         offset="0"
         id="stop5945" />
      <stop
         style="stop-color:#70a2f2;stop-opacity:1"
         offset="1"
         id="stop5947" />
    </linearGradient>
    <linearGradient
       inkscape:collect="always"
       id="linearGradient4650">
      <stop
         style="stop-color:#749ef2;stop-opacity:1"
         offset="0"
         id="stop4646" />
      <stop
         style="stop-color:#70a2f2;stop-opacity:1"
         offset="1"
         id="stop4648" />
    </linearGradient>
    <inkscape:path-effect
       effect="bspline"
       id="path-effect34707"
       is_visible="true"
       lpeversion="1"
       weight="33.333333"
       steps="2"
       helper_size="0"
       apply_no_weight="true"
       apply_with_weight="true"
       only_selected="false" />
    <inkscape:path-effect
       effect="spiro"
       id="path-effect1603"
       is_visible="true"
       lpeversion="1" />
    <inkscape:path-effect
       effect="spiro"
       id="path-effect1255"
       is_visible="true"
       lpeversion="1" />
    <inkscape:path-effect
       effect="spiro"
       id="path-effect1603-3"
       is_visible="true"
       lpeversion="1" />
    <inkscape:path-effect
       effect="spiro"
       id="path-effect1603-3-7"
       is_visible="true"
       lpeversion="1" />
    <clipPath
       id="clip0">
      <rect
         width="71"
         height="55"
         fill="white"
         id="rect2106" />
    </clipPath>
    <linearGradient
       inkscape:collect="always"
       xlink:href="#linearGradient4650"
       id="linearGradient4652"
       x1="0"
       y1="0"
       x2="48"
       y2="48"
       gradientUnits="userSpaceOnUse" />
    <linearGradient
       inkscape:collect="always"
       xlink:href="#linearGradient5949"
       id="linearGradient5616"
       x1="0"
       y1="0"
       x2="48"
       y2="48"
       gradientUnits="userSpaceOnUse" />
  </defs>
  <g
     inkscape:label="Layer 1"
     inkscape:groupmode="layer"
     id="layer1">
    <circle
       style="fill:#ffffff;fill-opacity:1;stroke:none;stroke-width:0.329;stroke-linejoin:round;stroke-dashoffset:50;stroke-miterlimit:4;stroke-dasharray:none"
       id="path3813"
       cx="6.3499999"
       cy="6.3499999"
       r="6.2180171" />
    <path
       id="path2267"
       style="fill:url(#linearGradient4652);stroke-width:0.75590552;stroke-linejoin:round;stroke-dashoffset:50;stroke:url(#linearGradient5616);stroke-opacity:1;stroke-miterlimit:4;stroke-dasharray:none;stroke-linecap:round;fill-opacity:1"
       d="M 24 0 A 24 24 0 0 0 0 24 A 24 24 0 0 0 24 48 A 24 24 0 0 0 48 24 A 24 24 0 0 0 24 0 z M 18.064453 8.1015625 C 18.103962 8.1072979 18.1393 8.1319662 18.160156 8.1679688 C 18.528516 8.8201965 18.949862 9.6561813 19.234375 10.339844 C 22.375217 9.8597825 25.564894 9.8597825 28.771484 10.339844 C 29.055937 9.6710492 29.461409 8.8201965 29.828125 8.1679688 C 29.856105 8.1183473 29.910547 8.0934243 29.964844 8.1035156 C 32.946154 8.6183508 35.798014 9.5162558 38.457031 10.736328 C 38.479897 10.746234 38.50038 10.763827 38.511719 10.787109 C 43.222953 17.716783 45.549553 25.532263 44.679688 34.53125 C 44.676362 34.569314 44.65637 34.603671 44.625 34.626953 C 41.056631 37.247484 37.600249 38.840047 34.191406 39.894531 C 34.137113 39.911123 34.077955 39.890125 34.044922 39.84375 C 33.257259 38.747842 32.542504 37.592335 31.916016 36.378906 C 31.87983 36.307753 31.912359 36.221517 31.986328 36.193359 C 33.122608 35.764597 34.202916 35.25204 35.242188 34.644531 C 35.324381 34.596527 35.329542 34.478152 35.253906 34.421875 C 35.033562 34.258003 34.814341 34.086228 34.605469 33.914062 C 34.566052 33.882466 34.513175 33.876894 34.46875 33.898438 C 27.721758 37.015656 20.331458 37.015656 13.503906 33.898438 C 13.459482 33.87844 13.406936 33.884721 13.369141 33.916016 C 13.160312 34.088184 12.941366 34.25798 12.722656 34.421875 C 12.647069 34.478152 12.65412 34.596527 12.736328 34.644531 C 13.775595 35.240465 14.855599 35.764906 15.990234 36.195312 C 16.064214 36.223468 16.098685 36.307752 16.0625 36.378906 C 15.449172 37.594039 14.734111 38.749848 13.931641 39.845703 C 13.897092 39.890415 13.839453 39.911161 13.785156 39.894531 C 10.39277 38.840047 6.9355573 37.247484 3.3671875 34.626953 C 3.3376074 34.603804 3.3157883 34.56736 3.3125 34.529297 C 2.5856701 26.745446 4.0680665 18.86533 9.4765625 10.785156 C 9.4896321 10.763571 9.5083083 10.746419 9.53125 10.736328 C 12.191912 9.5146117 15.043772 8.6167067 18.023438 8.1035156 C 18.037011 8.1014387 18.051283 8.0996507 18.064453 8.1015625 z M 17.082031 21.380859 C 14.993621 21.380859 13.332031 23.268312 13.332031 25.585938 C 13.332031 27.903566 15.026469 29.791016 17.082031 29.791016 C 19.170382 29.791016 20.830078 27.903566 20.830078 25.585938 C 20.862982 23.284883 19.186834 21.380859 17.082031 21.380859 z M 30.943359 21.380859 C 28.854949 21.380859 27.195312 23.268312 27.195312 25.585938 C 27.195313 27.903566 28.887857 29.791016 30.943359 29.791016 C 33.048222 29.791016 34.693359 27.903566 34.693359 25.585938 C 34.726204 23.284883 33.048222 21.380859 30.943359 21.380859 z "
       transform="scale(0.26458333)" />
  </g>
</svg>
