<?xml version="1.0" encoding="UTF-8" standalone="no"?>
<!-- Created with Inkscape (http://www.inkscape.org/) -->

<svg
   width="48"
   height="48"
   viewBox="0 0 12.7 12.7"
   version="1.1"
   id="svg927"
   sodipodi:docname="google-chrome.svg"
   inkscape:version="1.1.2 (0a00cf5339, 2022-02-04)"
   xmlns:inkscape="http://www.inkscape.org/namespaces/inkscape"
   xmlns:sodipodi="http://sodipodi.sourceforge.net/DTD/sodipodi-0.dtd"
   xmlns:xlink="http://www.w3.org/1999/xlink"
   xmlns="http://www.w3.org/2000/svg"
   xmlns:svg="http://www.w3.org/2000/svg">
  <sodipodi:namedview
     id="namedview929"
     pagecolor="#ffffff"
     bordercolor="#666666"
     borderopacity="1.0"
     inkscape:pageshadow="2"
     inkscape:pageopacity="0.0"
     inkscape:pagecheckerboard="0"
     inkscape:document-units="mm"
     showgrid="false"
     units="px"
     inkscape:zoom="4.3321459"
     inkscape:cx="-8.5408019"
     inkscape:cy="41.434431"
     inkscape:window-width="1536"
     inkscape:window-height="737"
     inkscape:window-x="0"
     inkscape:window-y="0"
     inkscape:window-maximized="1"
     inkscape:current-layer="layer1"
     inkscape:snap-nodes="true"
     inkscape:snap-global="false"
     showguides="false">
    <inkscape:grid
       type="xygrid"
       id="grid5380" />
  </sodipodi:namedview>
  <defs
     id="defs924">
    <linearGradient
       inkscape:collect="always"
       id="linearGradient3387">
      <stop
         style="stop-color:#217dfe;stop-opacity:1"
         offset="0"
         id="stop3383" />
      <stop
         style="stop-color:#926efe;stop-opacity:1"
         offset="1"
         id="stop3385" />
    </linearGradient>
    <linearGradient
       inkscape:collect="always"
       id="linearGradient71782">
      <stop
         style="stop-color:#7fd878;stop-opacity:1"
         offset="0"
         id="stop71778" />
      <stop
         style="stop-color:#61d878;stop-opacity:1"
         offset="1"
         id="stop71780" />
    </linearGradient>
    <linearGradient
       inkscape:collect="always"
       id="linearGradient71774">
      <stop
         style="stop-color:#ff246e;stop-opacity:1"
         offset="0"
         id="stop71770" />
      <stop
         style="stop-color:#e80289;stop-opacity:1"
         offset="1"
         id="stop71772" />
    </linearGradient>
    <linearGradient
       inkscape:collect="always"
       id="linearGradient71480">
      <stop
         style="stop-color:#ffd61b;stop-opacity:1"
         offset="0"
         id="stop71476" />
      <stop
         style="stop-color:#ffb01b;stop-opacity:1"
         offset="1"
         id="stop71478" />
    </linearGradient>
    <inkscape:path-effect
       effect="spiro"
       id="path-effect42217"
       is_visible="true"
       lpeversion="1" />
    <inkscape:path-effect
       effect="spiro"
       id="path-effect42209"
       is_visible="true"
       lpeversion="1" />
    <marker
       style="overflow:visible"
       id="marker39876"
       refX="0.0"
       refY="0.0"
       orient="auto"
       inkscape:stockid="Arrow1Lstart"
       inkscape:isstock="true">
      <path
         transform="scale(0.8) translate(12.5,0)"
         style="fill-rule:evenodd;fill:context-stroke;stroke:context-stroke;stroke-width:1.0pt"
         d="M 0.0,0.0 L 5.0,-5.0 L -12.5,0.0 L 5.0,5.0 L 0.0,0.0 z "
         id="path39874" />
    </marker>
    <marker
       style="overflow:visible"
       id="Arrow1Lstart"
       refX="0.0"
       refY="0.0"
       orient="auto"
       inkscape:stockid="Arrow1Lstart"
       inkscape:isstock="true">
      <path
         transform="scale(0.8) translate(12.5,0)"
         style="fill-rule:evenodd;fill:context-stroke;stroke:context-stroke;stroke-width:1.0pt"
         d="M 0.0,0.0 L 5.0,-5.0 L -12.5,0.0 L 5.0,5.0 L 0.0,0.0 z "
         id="path28291" />
    </marker>
    <inkscape:path-effect
       effect="spiro"
       id="path-effect967"
       is_visible="true"
       lpeversion="1" />
    <inkscape:path-effect
       effect="spiro"
       id="path-effect1088"
       is_visible="true"
       lpeversion="1" />
    <inkscape:path-effect
       effect="spiro"
       id="path-effect42209-2"
       is_visible="true"
       lpeversion="1" />
    <linearGradient
       inkscape:collect="always"
       xlink:href="#linearGradient71782"
       id="linearGradient4758"
       x1="4"
       y1="23.99"
       x2="31.33"
       y2="23.99"
       gradientUnits="userSpaceOnUse" />
    <linearGradient
       inkscape:collect="always"
       xlink:href="#linearGradient71480"
       id="linearGradient4766"
       x1="23.16"
       y1="24"
       x2="44"
       y2="24"
       gradientUnits="userSpaceOnUse" />
    <linearGradient
       inkscape:collect="always"
       xlink:href="#linearGradient71774"
       id="linearGradient5305"
       x1="7.1399999"
       y1="16.065001"
       x2="41.84"
       y2="16.065001"
       gradientUnits="userSpaceOnUse" />
    <linearGradient
       inkscape:collect="always"
       xlink:href="#linearGradient3387"
       id="linearGradient5429"
       x1="17"
       y1="24"
       x2="31"
       y2="24"
       gradientUnits="userSpaceOnUse" />
  </defs>
  <g
     inkscape:label="Layer 1"
     inkscape:groupmode="layer"
     id="layer1">
    <g
       id="g4688"
       transform="matrix(0.30040491,0,0,0.30040491,-0.859718,-0.859718)">
      <path
         fill="#ffffff"
         d="m 34,24 c 0,5.521 -4.479,10 -10,10 -5.521,0 -10,-4.479 -10,-10 0,-5.521 4.479,-10 10,-10 5.521,0 10,4.479 10,10 z"
         id="path4619"
         style="fill:#ffffff;fill-opacity:1" />
      <path
         fill="url(#Pax8JcnMzivu8f~SZ~k1ya)"
         d="M 31.33,29.21 23.17,43.98 C 12.51,43.55 4,34.76 4,24 4,12.96 12.96,4 24,4 v 11 c -4.97,0 -9,4.03 -9,9 0,4.97 4.03,9 9,9 3.03,0 5.7,-1.49 7.33,-3.79 z"
         id="path4636"
         style="fill:url(#linearGradient4758);fill-opacity:1;stroke-width:1.00157;stroke-miterlimit:4;stroke-dasharray:none" />
      <path
         fill="url(#Pax8JcnMzivu8f~SZ~k1yb)"
         d="M 44,24 C 44,35.05 35.05,44 24,44 H 23.16 L 31.33,29.21 C 32.38,27.74 33,25.94 33,24 33,19.03 28.97,15 24,15 V 4 c 7.81,0 14.55,4.48 17.85,11 1.36,2.71 2.15,5.76 2.15,9 z"
         id="path4653"
         style="fill:url(#linearGradient4766);fill-opacity:1" />
      <path
         fill="url(#Pax8JcnMzivu8f~SZ~k1yc)"
         d="M 41.84,15 H 24 c -4.97,0 -9,4.03 -9,9 0,1.49 0.36,2.89 1.01,4.13 H 16 L 7.16,13.26 H 7.14 C 10.68,7.69 16.91,4 24,4 31.8,4 38.55,8.48 41.84,15 Z"
         id="path4668"
         style="fill:url(#linearGradient5305);fill-opacity:1" />
      <path
         fill="url(#Pax8JcnMzivu8f~SZ~k1yd)"
         d="m 31,24 c 0,3.867 -3.133,7 -7,7 -3.867,0 -7,-3.133 -7,-7 0,-3.867 3.133,-7 7,-7 3.867,0 7,3.133 7,7 z"
         id="path4675"
         style="fill:url(#linearGradient5429);fill-opacity:1" />
    </g>
  </g>
</svg>
