<?xml version="1.0" encoding="UTF-8" standalone="no"?>
<!-- Created with Inkscape (http://www.inkscape.org/) -->

<svg
   width="48"
   height="48"
   viewBox="0 0 12.7 12.7"
   version="1.1"
   id="svg10497"
   inkscape:version="1.1.2 (0a00cf5339, 2022-02-04)"
   sodipodi:docname="obs.svg"
   xmlns:inkscape="http://www.inkscape.org/namespaces/inkscape"
   xmlns:sodipodi="http://sodipodi.sourceforge.net/DTD/sodipodi-0.dtd"
   xmlns:xlink="http://www.w3.org/1999/xlink"
   xmlns="http://www.w3.org/2000/svg"
   xmlns:svg="http://www.w3.org/2000/svg">
  <sodipodi:namedview
     id="namedview10499"
     pagecolor="#ffffff"
     bordercolor="#666666"
     borderopacity="1.0"
     inkscape:pageshadow="2"
     inkscape:pageopacity="0.0"
     inkscape:pagecheckerboard="0"
     inkscape:document-units="mm"
     showgrid="false"
     units="px"
     inkscape:zoom="11.402918"
     inkscape:cx="18.197097"
     inkscape:cy="21.003396"
     inkscape:window-width="1920"
     inkscape:window-height="953"
     inkscape:window-x="0"
     inkscape:window-y="0"
     inkscape:window-maximized="1"
     inkscape:current-layer="layer1"
     inkscape:snap-page="true" />
  <defs
     id="defs10494">
    <linearGradient
       inkscape:collect="always"
       id="linearGradient19402">
      <stop
         style="stop-color:#607dd0;stop-opacity:1"
         offset="0"
         id="stop19398" />
      <stop
         style="stop-color:#71f1b9;stop-opacity:1"
         offset="1"
         id="stop19400" />
    </linearGradient>
    <inkscape:path-effect
       effect="bspline"
       id="path-effect12902"
       is_visible="true"
       lpeversion="1"
       weight="33.333333"
       steps="2"
       helper_size="0"
       apply_no_weight="true"
       apply_with_weight="true"
       only_selected="false" />
    <inkscape:path-effect
       effect="bspline"
       id="path-effect12902-4"
       is_visible="true"
       lpeversion="1"
       weight="33.333333"
       steps="2"
       helper_size="0"
       apply_no_weight="true"
       apply_with_weight="true"
       only_selected="false" />
    <inkscape:path-effect
       effect="bspline"
       id="path-effect12902-4-1"
       is_visible="true"
       lpeversion="1"
       weight="33.333333"
       steps="2"
       helper_size="0"
       apply_no_weight="true"
       apply_with_weight="true"
       only_selected="false" />
    <linearGradient
       inkscape:collect="always"
       xlink:href="#linearGradient19402"
       id="linearGradient15560"
       x1="0"
       y1="0"
       x2="12.7"
       y2="12.7"
       gradientUnits="userSpaceOnUse" />
    <linearGradient
       inkscape:collect="always"
       xlink:href="#linearGradient19402"
       id="linearGradient17466"
       x1="0"
       y1="0"
       x2="12.7"
       y2="12.7"
       gradientUnits="userSpaceOnUse" />
  </defs>
  <g
     inkscape:label="Layer 1"
     inkscape:groupmode="layer"
     id="layer1">
    <path
       id="path12900-8-7"
       style="fill:url(#linearGradient15560);fill-opacity:1;stroke:none;stroke-width:0.193023px;stroke-linecap:butt;stroke-linejoin:miter;stroke-opacity:1"
       inkscape:path-effect="#path-effect12902-4-1"
       inkscape:original-d="M 6.6301467,6.6367563 C 5.976733,6.3043099 5.3232424,5.972129 4.6694802,5.6401154 4.5235237,5.6762743 4.3774886,5.7126812 4.231383,5.7493351 4.1340897,5.4307627 4.0367008,5.1124573 3.939151,4.7942074 3.8812935,4.4676213 3.823419,4.1417552 3.7653485,3.8156049 3.9263107,3.2006008 4.0869719,2.5866166 4.247634,1.9725038 4.2729831,1.8908218 4.2982322,1.8094002 4.3233806,1.7282295 4.3799971,2.123098 4.436509,2.5182034 4.4929238,2.9135721 4.4332716,3.2097503 4.3735209,3.506171 4.3136691,3.8028511 4.4595882,4.0850126 4.605401,4.3674172 4.7511152,4.6500824 c 0.049044,0.2295751 0.097986,0.45939 0.1468277,0.6894737 0.2319589,0.1347154 0.4638085,0.2696808 0.6955628,0.4049021 0.335956,0.1473152 0.6717984,0.2948797 1.007548,0.4427016 0.0098,0.1496144 0.019495,0.2994863 0.029093,0.4495965 z M 6.3415541,5.9878306 c 0.0388,0.7320961 0.077869,1.4641258 0.1172172,2.1963072 C 6.5630632,8.2924604 6.6676106,8.4007272 6.7724065,8.5089313 6.545162,8.7524759 6.3181956,8.99597 6.0913577,9.239575 5.8374546,9.4529747 5.5841838,9.6660278 5.3307648,9.8793946 4.7176738,10.047497 4.1056166,10.215351 3.493448,10.383269 3.4100366,10.402162 3.3268961,10.420998 3.2440269,10.439807 3.5576852,10.193342 3.8716,9.9468478 4.185792,9.7003067 4.4721149,9.6038751 4.7586996,9.5074151 5.0455573,9.4109067 5.2169596,9.1434619 5.3886234,8.8759823 5.5605602,8.6084569 5.7348563,8.4511964 5.909412,8.2939048 6.084248,8.1365632 6.0849359,7.8683231 6.0858939,7.6000531 6.0871218,7.3317372 6.0467232,6.9671327 6.0065966,6.6025027 5.9667388,6.2378242 6.0914098,6.1545319 6.2163535,6.071197 6.3415541,5.9878306 Z M 5.9238644,6.562222 C 6.5384781,6.1625721 7.1529003,5.7627227 7.7673136,5.3625551 7.8089776,5.2180741 7.8504666,5.0734004 7.8917758,4.9285424 8.2163137,5.0035704 8.5406689,5.0783814 8.8650565,5.1530262 9.1768173,5.2662125 9.4879629,5.3790251 9.7994524,5.4918098 10.25158,5.938709 10.702975,6.3848384 11.154481,6.831032 11.212541,6.893826 11.270436,6.9564014 11.328153,7.0187696 10.957882,6.8703638 10.587453,6.7217521 10.216848,6.5729242 9.9901764,6.3731744 9.7633444,6.1732189 9.5363366,5.9730461 9.2190184,5.9583334 8.9015425,5.9434082 8.5838902,5.9282692 8.3605506,5.8559545 8.1370541,5.7834307 7.9133744,5.7106893 7.6807275,5.8442134 7.44792,5.9775186 7.2149377,6.1106134 6.9193803,6.3279016 6.6236645,6.5449675 6.3277729,6.7618246 6.193304,6.6955026 6.0586622,6.6289655 5.9238644,6.562222 Z"
       d="M 6.2985218,6.3956028 C 5.9766099,6.3045522 5.3231192,5.9723715 4.9233483,5.8244306 4.5235774,5.6764897 4.3775424,5.7128969 4.2557349,5.5718546 4.1339274,5.4308124 4.0365383,5.112507 3.9588456,4.7900766 3.8811528,4.4676463 3.8232781,4.1417802 3.8747787,3.6711864 3.9262792,3.2005926 4.0869408,2.5866085 4.1799526,2.2387122 4.2729644,1.890816 4.2982124,1.8093941 4.3390375,1.9662557 4.3798626,2.1231172 4.4363757,2.5182225 4.4348,2.8639816 4.4332242,3.2097407 4.3734737,3.5061615 4.4164393,3.7956344 4.4594048,4.0851073 4.6052173,4.3675121 4.7026143,4.6236005 4.8000113,4.879689 4.8489519,5.1095042 4.9893588,5.2920047 5.1297658,5.4745052 5.3616157,5.60947 5.6454837,5.750747 5.9293516,5.8920239 6.2651942,6.0395881 6.4379649,6.188185 6.6107356,6.3367818 6.6204337,6.4866535 6.2985218,6.3956028 Z m -10e-8,1e-7 c 0.082104,0.3243093 0.1211722,1.056339 0.1929369,1.476521 0.071765,0.420182 0.176312,0.5284488 0.1150696,0.7044581 C 6.5452858,8.7525913 6.3183195,8.9960855 6.077933,9.2245847 5.8375465,9.4530839 5.5842763,9.6661378 5.1509795,9.8568335 4.7176826,10.047529 4.1056253,10.215383 3.7578325,10.308779 3.4100397,10.402176 3.3269014,10.421021 3.442335,10.307235 3.5577686,10.193448 3.8716832,9.9469537 4.1719073,9.7754388 4.4721313,9.6039239 4.7587144,9.507459 4.9879222,9.3255152 5.21713,9.1435713 5.3887949,8.8760924 5.561876,8.6637003 5.7349571,8.4513083 5.9095128,8.2940166 5.9973593,8.0811704 6.0852058,7.8683241 6.0861637,7.6000541 6.0665791,7.2835785 6.0469945,6.9671028 6.0068677,6.6024729 6.0491709,6.3785506 6.0914742,6.1546284 6.216418,6.0712937 6.2985217,6.3956029 Z m 10e-8,1e-7 C 6.5383299,6.1623444 7.1527522,5.7624951 7.4807581,5.490254 7.8087641,5.2180129 7.8502524,5.073339 8.0333021,5.0383719 8.2163519,5.0034047 8.540707,5.0782161 8.8587864,5.1721475 9.1768658,5.2660788 9.4880116,5.3788908 9.8698072,5.6587884 10.251603,5.9386859 10.702998,6.3848153 10.957777,6.6393133 11.212557,6.8938114 11.270448,6.9563907 11.11419,6.9133154 10.957932,6.8702402 10.587503,6.7216276 10.288855,6.5473831 9.990208,6.3731386 9.7633756,6.1731835 9.4912018,6.065656 9.219028,5.9581286 8.9015521,5.9432033 8.6310746,5.8995073 8.360597,5.8558114 8.1371005,5.7832876 7.908847,5.8136335 7.6805935,5.8439794 7.4477861,5.9772847 7.1835025,6.1524832 6.9192189,6.3276817 6.6235032,6.5447478 6.4084293,6.6200731 6.1933555,6.6953985 6.0587136,6.6288615 6.2985218,6.395603 Z" />
    <circle
       style="fill:none;fill-opacity:1;stroke:url(#linearGradient17466);stroke-width:1.22291;stroke-linecap:round;stroke-linejoin:round;stroke-miterlimit:4;stroke-dasharray:none;stroke-dashoffset:50;stroke-opacity:1"
       id="path13791"
       cx="6.3499999"
       cy="6.3499999"
       r="5.3585305" />
  </g>
</svg>
